<svg width="448" height="448" viewBox="0 0 448 448" fill="none" xmlns="http://www.w3.org/2000/svg">
<g opacity="0.5">
<path d="M224 448C347.712 448 448 347.712 448 224C448 100.288 347.712 0 224 0C100.288 0 0 100.288 0 224C0 347.712 100.288 448 224 448Z" fill="white"/>
<path d="M446 224C446 346.607 346.607 446 224 446C101.393 446 2 346.607 2 224C2 101.393 101.393 2 224 2C346.607 2 446 101.393 446 224Z" stroke="#4360E6" stroke-opacity="0.56" stroke-width="4"/>
</g>
<path opacity="0.5" d="M223.999 406.186C324.618 406.186 406.186 324.618 406.186 223.999C406.186 123.38 324.618 41.8125 223.999 41.8125C123.38 41.8125 41.8125 123.38 41.8125 223.999C41.8125 324.618 123.38 406.186 223.999 406.186Z" fill="#D3E3F8"/>
<g filter="url(#filter0_d_1833_15612)">
<path d="M254.987 193.637H224.622H190.275L202.222 345.459L224.622 368.854L247.022 345.459L235.573 332.019L249.083 319.271L235.573 303.148L251.602 287.259L254.987 193.637Z" fill="#09A37E"/>
<path d="M286.222 84.125H160.02C157.844 84.1251 155.693 84.584 153.706 85.4719C151.72 86.3597 149.943 87.6564 148.491 89.2775C147.04 90.8985 145.947 92.8074 145.283 94.8796C144.619 96.9518 144.399 99.1406 144.639 101.303L154.654 191.809C155.072 195.596 156.873 199.096 159.711 201.637C162.549 204.179 166.226 205.584 170.035 205.583H276.221C280.031 205.584 283.708 204.179 286.546 201.637C289.384 199.096 291.185 195.596 291.603 191.809L301.618 101.303C301.858 99.1394 301.638 96.9492 300.973 94.876C300.308 92.8028 299.214 90.8932 297.761 89.2719C296.308 87.6506 294.529 86.3542 292.54 85.4673C290.552 84.5804 288.399 84.123 286.222 84.125ZM263.324 119.134C263.325 119.897 263.175 120.652 262.883 121.358C262.591 122.063 262.164 122.703 261.624 123.243C261.084 123.782 260.444 124.21 259.739 124.502C259.034 124.794 258.278 124.943 257.515 124.943H189.986C189.223 124.943 188.468 124.794 187.763 124.502C187.058 124.21 186.417 123.782 185.877 123.243C185.338 122.703 184.91 122.063 184.618 121.358C184.326 120.652 184.177 119.897 184.177 119.134V108.352C184.177 107.589 184.326 106.833 184.618 106.128C184.91 105.423 185.338 104.782 185.877 104.243C186.417 103.703 187.058 103.275 187.763 102.984C188.468 102.692 189.223 102.542 189.986 102.543H257.515C258.278 102.542 259.034 102.692 259.739 102.984C260.444 103.275 261.084 103.703 261.624 104.243C262.164 104.782 262.591 105.423 262.883 106.128C263.175 106.833 263.325 107.589 263.324 108.352V119.134Z" fill="#7EE5CC"/>
</g>
<path fill-rule="evenodd" clip-rule="evenodd" d="M278.369 139.801C277.228 139.778 276.113 140.143 275.206 140.836C274.299 141.528 273.653 142.507 273.374 143.614C273.095 144.72 273.199 145.889 273.67 146.928C274.14 147.968 274.949 148.818 275.964 149.339L275.8 158.478L267.089 175.402V205.085H271.569V176.507L280.26 159.583L280.439 149.398C281.469 148.91 282.303 148.089 282.807 147.067C283.311 146.045 283.454 144.883 283.214 143.769C282.975 142.656 282.365 141.656 281.486 140.932C280.606 140.208 279.508 139.802 278.369 139.781V139.801ZM170.49 155.76C171.512 155.254 172.332 154.418 172.819 153.387C173.306 152.356 173.429 151.191 173.17 150.081C172.91 148.971 172.283 147.981 171.389 147.272C170.496 146.564 169.39 146.178 168.25 146.178C167.11 146.178 166.003 146.564 165.11 147.272C164.217 147.981 163.589 148.971 163.33 150.081C163.07 151.191 163.194 152.356 163.68 153.387C164.167 154.418 164.988 155.254 166.01 155.76V170.569L175 183.461V205.209H179.48V182.052L170.49 169.165V155.76ZM248.143 173.273C249.165 172.768 249.986 171.932 250.472 170.901C250.959 169.87 251.082 168.704 250.823 167.594C250.563 166.484 249.936 165.495 249.043 164.786C248.15 164.078 247.043 163.692 245.903 163.692C244.763 163.692 243.657 164.078 242.763 164.786C241.87 165.495 241.243 166.484 240.983 167.594C240.724 168.704 240.847 169.87 241.334 170.901C241.82 171.932 242.641 172.768 243.663 173.273V184.075L252.653 188.555V205.335H257.133V185.777L248.143 181.297V173.273ZM224.878 177.983C225.77 177.275 226.874 176.889 228.013 176.887C229.154 176.884 230.263 177.268 231.158 177.976C232.053 178.684 232.681 179.674 232.941 180.785C233.201 181.896 233.077 183.063 232.589 184.094C232.1 185.125 231.277 185.961 230.253 186.464V205.584H225.773V186.464C224.753 185.958 223.935 185.122 223.45 184.091C222.965 183.061 222.842 181.898 223.101 180.789C223.361 179.68 223.987 178.692 224.878 177.983ZM208.671 155.21C209.562 154.502 210.667 154.116 211.805 154.114C212.944 154.116 214.049 154.502 214.94 155.21C215.832 155.918 216.458 156.907 216.717 158.016C216.976 159.124 216.854 160.288 216.369 161.318C215.884 162.348 215.065 163.184 214.045 163.691V179.336L200.605 191.283V205.46H196.125V189.272L209.565 177.325V163.691C208.546 163.184 207.727 162.348 207.242 161.318C206.757 160.288 206.634 159.124 206.894 158.016C207.153 156.907 207.779 155.918 208.671 155.21Z" fill="white"/>
<path d="M357.041 175.36C360.409 173.118 364.043 171.304 367.858 169.959C352.038 166.026 345.567 155.374 342.929 146.941C340.271 155.364 333.795 166.001 318.08 169.944C321.912 171.307 325.558 173.147 328.932 175.419C334.084 178.934 339.987 184.643 342.924 193.414C345.831 184.598 351.81 178.874 357.041 175.36Z" fill="#89BDFF"/>
<path d="M114.747 200.401C116.94 198.639 119.366 197.189 121.955 196.09C111.412 192.944 107.101 184.442 105.339 177.707C103.572 184.432 99.2564 192.924 88.7832 196.075C91.3848 197.192 93.819 198.665 96.0159 200.45C100.548 204.148 103.808 209.172 105.339 214.816C106.864 209.134 110.159 204.084 114.747 200.401Z" fill="#9CC8FF"/>
<path d="M325.483 214.58C327.213 213.265 329.111 212.189 331.128 211.379C322.869 209.05 319.49 202.743 318.111 197.75C316.722 202.728 313.347 209.035 305.139 211.369C307.166 212.188 309.071 213.28 310.803 214.615C314.312 217.296 316.872 221.029 318.111 225.267C319.343 220.999 321.93 217.247 325.483 214.58Z" fill="#C2D4F4"/>
<path d="M148.014 269.354C152.075 266.243 156.538 263.695 161.28 261.777C141.867 256.252 133.942 241.309 130.706 229.477C127.446 241.294 119.506 256.217 100.232 261.752C104.996 263.702 109.473 266.288 113.543 269.438C121.794 275.823 127.802 284.664 130.701 294.685C133.586 284.594 139.659 275.707 148.014 269.354Z" fill="#A2BDEE"/>
<defs>
<filter id="filter0_d_1833_15612" x="120.545" y="76.125" width="205.168" height="332.73" filterUnits="userSpaceOnUse" color-interpolation-filters="sRGB">
<feFlood flood-opacity="0" result="BackgroundImageFix"/>
<feColorMatrix in="SourceAlpha" type="matrix" values="0 0 0 0 0 0 0 0 0 0 0 0 0 0 0 0 0 0 127 0" result="hardAlpha"/>
<feOffset dy="16"/>
<feGaussianBlur stdDeviation="12"/>
<feComposite in2="hardAlpha" operator="out"/>
<feColorMatrix type="matrix" values="0 0 0 0 0.0352941 0 0 0 0 0.639216 0 0 0 0 0.494118 0 0 0 0.25 0"/>
<feBlend mode="normal" in2="BackgroundImageFix" result="effect1_dropShadow_1833_15612"/>
<feBlend mode="normal" in="SourceGraphic" in2="effect1_dropShadow_1833_15612" result="shape"/>
</filter>
</defs>
</svg>
