<svg width="640" height="640" viewBox="0 0 640 640" fill="none" xmlns="http://www.w3.org/2000/svg">
<g opacity="0.5">
<path d="M320 640C496.731 640 640 496.731 640 320C640 143.269 496.731 0 320 0C143.269 0 0 143.269 0 320C0 496.731 143.269 640 320 640Z" fill="white"/>
<path d="M638 320C638 495.627 495.627 638 320 638C144.373 638 2 495.627 2 320C2 144.373 144.373 2 320 2C495.627 2 638 144.373 638 320Z" stroke="#4360E6" stroke-opacity="0.56" stroke-width="4"/>
</g>
<path opacity="0.5" d="M320 585.755C466.772 585.755 585.755 466.772 585.755 320C585.755 173.228 466.772 54.2461 320 54.2461C173.228 54.2461 54.2461 173.228 54.2461 320C54.2461 466.772 173.228 585.755 320 585.755Z" fill="#D3E3F8"/>
<path d="M504.128 319.999C504.128 421.689 421.691 504.126 320.001 504.126C218.31 504.126 135.873 421.689 135.873 319.999C135.873 218.308 218.31 135.871 320.001 135.871C421.691 135.871 504.128 218.308 504.128 319.999Z" fill="#698DEB" stroke="white" stroke-width="4"/>
<path d="M504.128 319.999C504.128 421.689 421.691 504.126 320.001 504.126C218.31 504.126 135.873 421.689 135.873 319.999C135.873 218.308 218.31 135.871 320.001 135.871C421.691 135.871 504.128 218.308 504.128 319.999Z" fill="white" fill-opacity="0.24" stroke="white" stroke-width="4"/>
<path d="M319.999 459.346C396.958 459.346 459.346 396.958 459.346 319.999C459.346 243.04 396.958 180.652 319.999 180.652C243.04 180.652 180.652 243.04 180.652 319.999C180.652 396.958 243.04 459.346 319.999 459.346Z" fill="#A4C8FF"/>
<path d="M319.999 459.346C396.958 459.346 459.346 396.958 459.346 319.999C459.346 243.04 396.958 180.652 319.999 180.652C243.04 180.652 180.652 243.04 180.652 319.999C180.652 396.958 243.04 459.346 319.999 459.346Z" fill="white" fill-opacity="0.5"/>
<g filter="url(#filter0_d_1833_15732)">
<path d="M319.004 225.758V294.691L376.001 320.838L319.004 225.758Z" fill="#A5FCF6"/>
<path d="M376.001 320.838L319.004 294.691V355.367L376.001 320.838Z" fill="#CFB0FA"/>
<path d="M376.001 332.539L319.004 414.454V367.068L376.001 332.539Z" fill="#CFB0FA"/>
<path d="M319.004 225.758V294.691L262 320.838L319.004 225.758Z" fill="#D0C4FB"/>
<path d="M262 320.838L319.004 294.691V355.367L262 320.838Z" fill="#81A8F8"/>
<path d="M262 332.539L319.004 414.454V367.068L262 332.539Z" fill="#81A8F8"/>
<path fill-rule="evenodd" clip-rule="evenodd" d="M262.044 321.074C262.029 321.031 262.017 320.987 262.008 320.942C262.008 320.913 262.052 320.862 262.052 320.862C262.048 320.843 262.048 320.823 262.052 320.803V320.737V320.65C262.062 320.604 262.079 320.559 262.103 320.518V320.467L319.1 225.387C319.122 225.356 319.147 225.327 319.173 225.299L319.26 225.211L319.348 225.16L319.473 225.102H319.575H319.699H319.817H319.897C319.933 225.112 319.967 225.126 319.999 225.145C320.036 225.163 320.07 225.185 320.102 225.211C320.132 225.232 320.159 225.256 320.182 225.284C320.213 225.313 320.24 225.345 320.263 225.379L377.26 320.46V320.511C377.283 320.552 377.3 320.596 377.311 320.642V320.73V320.796C377.314 320.815 377.314 320.835 377.311 320.855V320.942C377.302 320.987 377.29 321.031 377.274 321.074V321.147C377.247 321.199 377.215 321.247 377.179 321.293C377.135 321.345 377.083 321.389 377.025 321.425L320.021 355.954L319.919 355.998H319.853C319.729 356.037 319.596 356.037 319.473 355.998C319.451 356.003 319.428 356.003 319.407 355.998C319.368 355.991 319.33 355.976 319.297 355.954L262.293 321.425C262.236 321.389 262.183 321.345 262.139 321.293C262.103 321.247 262.072 321.199 262.044 321.147V321.074ZM319.005 294.209V228.399L264.575 319.185L319.005 294.209ZM320.467 294.209V228.399L374.89 319.185L320.467 294.209ZM320.467 354.066V295.826L375.175 320.92L320.467 354.066ZM319.006 295.826V354.066L264.291 320.92L319.006 295.826Z" fill="#4360E6"/>
<path d="M376.36 331.942L319.736 366.215L263.112 331.913C262.968 331.826 262.798 331.792 262.631 331.816C262.465 331.84 262.312 331.921 262.198 332.044C262.084 332.167 262.016 332.324 262.004 332.49C261.992 332.656 262.037 332.822 262.132 332.959L319.136 414.874C319.174 414.919 319.215 414.96 319.26 414.998H319.312L319.45 415.071H319.509C319.638 415.11 319.775 415.11 319.904 415.071H319.94L320.08 414.998H320.131C320.176 414.96 320.217 414.919 320.255 414.874L377.259 332.959C377.354 332.822 377.399 332.656 377.387 332.49C377.375 332.324 377.307 332.167 377.193 332.044C377.082 331.944 376.942 331.88 376.793 331.862C376.644 331.843 376.492 331.871 376.36 331.942ZM319.004 412.153L265.306 334.985L319.004 367.517V412.153ZM320.467 412.153V367.539L374.165 335.007L320.467 412.153Z" fill="#4360E6"/>
</g>
<path d="M487.849 487.853C491.216 485.613 494.849 483.799 498.663 482.454C482.847 478.522 476.378 467.872 473.74 459.441C471.082 467.862 464.608 478.497 448.896 482.439C452.728 483.802 456.373 485.641 459.746 487.913C464.896 491.426 470.799 497.135 473.735 505.904C476.641 497.09 482.618 491.367 487.849 487.853Z" fill="#C2D4F4"/>
<path d="M268.492 123.716C271.18 121.926 274.081 120.479 277.127 119.406C264.496 116.261 259.33 107.761 257.22 101.027C255.1 107.751 249.929 116.241 237.383 119.391C240.443 120.481 243.354 121.95 246.047 123.766C250.163 126.568 254.871 131.126 257.215 138.128C259.544 131.091 264.317 126.523 268.492 123.716Z" fill="#A2BDEE"/>
<path d="M206.527 140.895C210.587 137.786 215.048 135.238 219.79 133.321C200.381 127.797 192.458 112.857 189.223 101.027C185.963 112.842 178.026 127.762 158.756 133.296C163.518 135.246 167.994 137.83 172.063 140.98C180.312 147.363 186.319 156.202 189.218 166.222C192.102 156.132 198.174 147.247 206.527 140.895Z" fill="#89BDFF" fill-opacity="0.4"/>
<defs>
<filter id="filter0_d_1833_15732" x="212" y="200.102" width="215.389" height="290" filterUnits="userSpaceOnUse" color-interpolation-filters="sRGB">
<feFlood flood-opacity="0" result="BackgroundImageFix"/>
<feColorMatrix in="SourceAlpha" type="matrix" values="0 0 0 0 0 0 0 0 0 0 0 0 0 0 0 0 0 0 127 0" result="hardAlpha"/>
<feOffset dy="25"/>
<feGaussianBlur stdDeviation="25"/>
<feComposite in2="hardAlpha" operator="out"/>
<feColorMatrix type="matrix" values="0 0 0 0 0.262745 0 0 0 0 0.376471 0 0 0 0 0.901961 0 0 0 0.25 0"/>
<feBlend mode="normal" in2="BackgroundImageFix" result="effect1_dropShadow_1833_15732"/>
<feBlend mode="normal" in="SourceGraphic" in2="effect1_dropShadow_1833_15732" result="shape"/>
</filter>
</defs>
</svg>
