<svg width="570" height="570" viewBox="0 0 570 570" fill="none" xmlns="http://www.w3.org/2000/svg">
<g opacity="0.5">
<path d="M285 570C442.401 570 570 442.401 570 285C570 127.599 442.401 0 285 0C127.599 0 0 127.599 0 285C0 442.401 127.599 570 285 570Z" fill="white"/>
<path d="M568 285C568 441.297 441.297 568 285 568C128.703 568 2 441.297 2 285C2 128.703 128.703 2 285 2C441.297 2 568 128.703 568 285Z" stroke="#4360E6" stroke-opacity="0.56" stroke-width="4"/>
</g>
<path opacity="0.5" d="M285 526.155C418.185 526.155 526.153 418.187 526.153 285.001C526.153 151.816 418.185 43.8477 285 43.8477C151.814 43.8477 43.8457 151.816 43.8457 285.001C43.8457 418.187 151.814 526.155 285 526.155Z" fill="#D3E3F8"/>
<path d="M392.124 204.285H178.374C171.502 204.285 164.912 207.015 160.053 211.874C155.195 216.733 152.465 223.323 152.465 230.194C152.465 237.066 155.195 243.656 160.053 248.515C164.912 253.374 171.502 256.103 178.374 256.103H405.377C409.825 256.098 414.194 257.279 418.033 259.526V230.194C418.033 223.323 415.303 216.733 410.444 211.874C405.586 207.015 398.995 204.285 392.124 204.285Z" fill="#4360E6"/>
<path d="M370.193 219.232C370.193 262.706 334.951 297.949 291.477 297.949C248.002 297.949 212.76 262.706 212.76 219.232C212.76 175.758 248.002 140.516 291.477 140.516C334.951 140.516 370.193 175.758 370.193 219.232Z" fill="#7EE6CC" stroke="white" stroke-width="4"/>
<path d="M291.477 279.657C324.85 279.657 351.905 252.602 351.905 219.229C351.905 185.855 324.85 158.801 291.477 158.801C258.103 158.801 231.049 185.855 231.049 219.229C231.049 252.602 258.103 279.657 291.477 279.657Z" fill="#B3F8E7"/>
<path d="M408.203 163.566C411.575 161.323 415.211 159.507 419.03 158.16C403.196 154.224 396.719 143.561 394.078 135.121C391.417 143.552 384.935 154.199 369.205 158.145C373.041 159.51 376.69 161.351 380.067 163.626C385.224 167.144 391.133 172.859 394.073 181.638C396.983 172.814 402.967 167.084 408.203 163.566Z" fill="#C2D4F4"/>
<path d="M203.216 162.723C205.907 160.931 208.811 159.482 211.861 158.408C199.215 155.259 194.043 146.749 191.931 140.008C189.808 146.739 184.631 155.239 172.07 158.393C175.134 159.484 178.048 160.955 180.745 162.773C184.865 165.578 189.579 170.142 191.926 177.153C194.257 170.107 199.036 165.533 203.216 162.723Z" fill="#A2BDEE" fill-opacity="0.4"/>
<path d="M258.767 113.157C262.832 110.044 267.298 107.493 272.045 105.574C252.613 100.043 244.681 85.0856 241.442 73.2422C238.179 85.0707 230.232 100.008 210.939 105.549C215.707 107.501 220.189 110.088 224.263 113.242C232.521 119.633 238.535 128.482 241.437 138.513C244.324 128.412 250.404 119.516 258.767 113.157Z" fill="#9CC8FF"/>
<g filter="url(#filter0_f_1833_15593)">
<path d="M394.407 246.136H179.59L179.562 246.101C173.325 245.756 167.45 242.88 163.149 238.065C158.849 233.251 156.451 226.865 156.451 220.227V417.335C156.451 420.633 157.061 423.899 158.248 426.946C159.436 429.993 161.176 432.761 163.37 435.093C165.564 437.425 168.169 439.275 171.036 440.537C173.902 441.798 176.975 442.447 180.078 442.447H394.407C397.509 442.447 400.582 441.798 403.449 440.537C406.316 439.275 408.921 437.425 411.115 435.093C413.309 432.761 415.049 429.993 416.236 426.946C417.423 423.899 418.034 420.633 418.033 417.335V271.248C418.034 267.95 417.423 264.684 416.236 261.637C415.049 258.59 413.309 255.821 411.115 253.489C408.921 251.157 406.316 249.308 403.449 248.046C400.582 246.784 397.509 246.135 394.407 246.136Z" fill="#4360E6" fill-opacity="0.32"/>
</g>
<path d="M405.377 256.1H177.059L177.029 256.066C170.399 255.721 164.155 252.845 159.584 248.03C155.013 243.215 152.465 236.83 152.465 230.191V427.3C152.464 430.598 153.113 433.864 154.375 436.911C155.637 439.958 157.486 442.726 159.818 445.058C162.15 447.39 164.919 449.24 167.966 450.502C171.013 451.763 174.279 452.412 177.577 452.412H405.377C408.675 452.412 411.941 451.763 414.988 450.502C418.035 449.24 420.804 447.39 423.136 445.058C425.468 442.726 427.317 439.958 428.579 436.911C429.841 433.864 430.49 430.598 430.489 427.3V281.212C430.49 277.914 429.841 274.649 428.579 271.602C427.317 268.555 425.468 265.786 423.136 263.454C420.804 261.122 418.035 259.272 414.988 258.011C411.941 256.749 408.675 256.1 405.377 256.1Z" fill="#A4C8FF"/>
<path d="M359.019 322.367H435.89C438.025 322.367 440.073 323.215 441.583 324.725C443.093 326.235 443.941 328.283 443.941 330.419V376.099C443.941 378.234 443.093 380.282 441.583 381.792C440.073 383.302 438.025 384.15 435.89 384.15H359.019C355.113 384.15 351.367 382.599 348.605 379.837C345.843 377.074 344.291 373.328 344.291 369.422V337.096C344.291 333.189 345.843 329.443 348.605 326.681C351.367 323.919 355.113 322.367 359.019 322.367Z" fill="#698DEB"/>
<path d="M368.208 365.217C374.812 365.217 380.166 359.863 380.166 353.259C380.166 346.655 374.812 341.301 368.208 341.301C361.604 341.301 356.25 346.655 356.25 353.259C356.25 359.863 361.604 365.217 368.208 365.217Z" fill="white"/>
<path fill-rule="evenodd" clip-rule="evenodd" d="M321.142 197.509C308.836 197.509 298.043 206.233 298.043 219.432C298.043 229.816 306.02 240.957 321.008 240.912C326.713 240.912 332.762 239.671 338.058 236.647V239.138C332.766 241.935 326.854 243.354 320.868 243.264C304.969 243.264 296.888 232.436 295.667 222.153H279.892V242.641H277.346V219.816H295.497V219.402C295.498 218.483 295.551 217.565 295.657 216.652H277.346V201.206H297.904V203.543H279.892V214.335H296.05C298.482 203.164 308.781 195.152 321.018 195.152C326.309 195.152 331.88 196.463 337.585 199.004V201.495C332.557 199.163 326.573 197.509 321.142 197.509ZM271.436 195.781H297.904V198.123H273.908V242.676H271.367V203.554H253.42V214.346H271.297V216.683H250.879V201.217H271.367V198.123H247.441V242.676H244.895V195.781H271.367H271.436ZM253.42 242.675H250.878V219.845H271.297V222.182H253.42V242.675ZM321.212 235.386C310.076 235.386 304.302 228.236 304.302 219.442C304.302 210.648 310.141 203.08 321.352 203.08C326.987 203.08 332.627 204.868 337.575 207.688V205.197C332.762 202.447 326.573 200.713 321.282 200.713C309.324 200.713 301.756 208.894 301.756 219.412C301.756 230.07 309.229 237.703 321.143 237.703C326.623 237.703 333.245 235.78 338.083 232.82V230.329C333.047 233.567 327.2 235.32 321.212 235.386Z" fill="#4360E6"/>
<defs>
<filter id="filter0_f_1833_15593" x="116.451" y="180.227" width="341.582" height="302.219" filterUnits="userSpaceOnUse" color-interpolation-filters="sRGB">
<feFlood flood-opacity="0" result="BackgroundImageFix"/>
<feBlend mode="normal" in="SourceGraphic" in2="BackgroundImageFix" result="shape"/>
<feGaussianBlur stdDeviation="20" result="effect1_foregroundBlur_1833_15593"/>
</filter>
</defs>
</svg>
