<svg width="505" height="505" viewBox="0 0 505 505" fill="none" xmlns="http://www.w3.org/2000/svg">
<g opacity="0.5">
<path d="M252.5 505C391.952 505 505 391.952 505 252.5C505 113.048 391.952 0 252.5 0C113.048 0 0 113.048 0 252.5C0 391.952 113.048 505 252.5 505Z" fill="white"/>
<path d="M503 252.5C503 390.847 390.847 503 252.5 503C114.153 503 2 390.847 2 252.5C2 114.153 114.153 2 252.5 2C390.847 2 503 114.153 503 252.5Z" stroke="#4360E6" stroke-opacity="0.56" stroke-width="4"/>
</g>
<path opacity="0.5" d="M252.5 457.866C365.921 457.866 457.867 365.92 457.867 252.499C457.867 139.079 365.921 47.1328 252.5 47.1328C139.08 47.1328 47.1338 139.079 47.1338 252.499C47.1338 365.92 139.08 457.866 252.5 457.866Z" fill="#D3E3F8"/>
<path fill-rule="evenodd" clip-rule="evenodd" d="M128.856 272.605L125.085 270.734L123.214 274.509C123.207 274.523 123.2 274.537 123.193 274.55L109.011 303.165C107.972 305.259 108.829 307.799 110.924 308.838C113.018 309.876 115.558 309.019 116.596 306.925L125.96 288.033C137.161 323.137 155.192 345.957 174.454 360.697C195.521 376.818 217.8 383.079 233.631 385.449C235.943 385.796 238.098 384.202 238.444 381.89C238.79 379.577 237.197 377.422 234.884 377.076C220.011 374.85 199.211 368.981 179.599 353.973C161.604 340.202 144.388 318.571 133.711 284.463L155.745 295.39C157.84 296.429 160.38 295.573 161.418 293.479C162.457 291.384 161.601 288.844 159.507 287.805L128.897 272.625C128.883 272.618 128.87 272.611 128.856 272.605Z" fill="#4360E6"/>
<path fill-rule="evenodd" clip-rule="evenodd" d="M273.581 117.625C271.269 117.279 269.114 118.872 268.767 121.184C268.421 123.497 270.014 125.652 272.326 125.998C287.2 128.228 308 134.096 327.612 149.103C345.607 162.874 362.823 184.504 373.5 218.612L351.465 207.684C349.371 206.645 346.831 207.501 345.792 209.596C344.753 211.69 345.609 214.23 347.704 215.269L378.287 230.436C378.318 230.452 378.35 230.468 378.382 230.483L382.126 232.34L383.975 228.609C383.997 228.567 384.018 228.524 384.039 228.481L398.2 199.91C399.238 197.815 398.382 195.275 396.287 194.237C394.192 193.198 391.652 194.055 390.614 196.15L381.251 215.041C370.05 179.938 352.019 157.119 332.757 142.38C311.69 126.259 289.411 119.998 273.581 117.625Z" fill="#09A37E"/>
<g filter="url(#filter0_d_1833_15582)">
<mask id="path-6-inside-1_1833_15582" fill="white">
<path fill-rule="evenodd" clip-rule="evenodd" d="M188 190C211.748 190 231 170.748 231 147C231 123.252 211.748 104 188 104C164.252 104 145 123.252 145 147C145 170.748 164.252 190 188 190ZM244.449 204.097C238.684 200.776 232.136 199.057 225.484 199.117H209.273C202.541 202.215 195.218 203.818 187.808 203.818C180.398 203.818 173.075 202.215 166.343 199.117H150.172C143.52 199.059 136.973 200.778 131.207 204.097C125.509 207.348 120.787 212.069 117.536 217.768C114.217 223.533 112.498 230.081 112.556 236.733V241.439C112.55 243.295 112.91 245.133 113.617 246.848C114.324 248.564 115.363 250.122 116.675 251.434C117.987 252.746 119.546 253.786 121.261 254.493C122.977 255.199 124.815 255.56 126.67 255.554H248.986C250.841 255.56 252.679 255.199 254.395 254.493C256.11 253.786 257.669 252.746 258.981 251.434C260.293 250.122 261.332 248.564 262.039 246.848C262.746 245.133 263.106 243.295 263.1 241.439V236.733C263.162 230.08 261.442 223.532 258.12 217.768C254.869 212.069 250.147 207.348 244.449 204.097Z"/>
</mask>
<path fill-rule="evenodd" clip-rule="evenodd" d="M188 190C211.748 190 231 170.748 231 147C231 123.252 211.748 104 188 104C164.252 104 145 123.252 145 147C145 170.748 164.252 190 188 190ZM244.449 204.097C238.684 200.776 232.136 199.057 225.484 199.117H209.273C202.541 202.215 195.218 203.818 187.808 203.818C180.398 203.818 173.075 202.215 166.343 199.117H150.172C143.52 199.059 136.973 200.778 131.207 204.097C125.509 207.348 120.787 212.069 117.536 217.768C114.217 223.533 112.498 230.081 112.556 236.733V241.439C112.55 243.295 112.91 245.133 113.617 246.848C114.324 248.564 115.363 250.122 116.675 251.434C117.987 252.746 119.546 253.786 121.261 254.493C122.977 255.199 124.815 255.56 126.67 255.554H248.986C250.841 255.56 252.679 255.199 254.395 254.493C256.11 253.786 257.669 252.746 258.981 251.434C260.293 250.122 261.332 248.564 262.039 246.848C262.746 245.133 263.106 243.295 263.1 241.439V236.733C263.162 230.08 261.442 223.532 258.12 217.768C254.869 212.069 250.147 207.348 244.449 204.097Z" fill="white"/>
<path d="M225.484 199.117V207.117H225.52L225.556 207.117L225.484 199.117ZM244.449 204.097L240.455 211.029L240.47 211.038L240.485 211.046L244.449 204.097ZM209.273 199.117V191.117H207.521L205.929 191.849L209.273 199.117ZM166.343 199.117L169.687 191.849L168.095 191.117H166.343V199.117ZM150.172 199.117L150.102 207.117L150.137 207.117H150.172V199.117ZM131.207 204.097L135.171 211.046L135.185 211.038L135.199 211.03L131.207 204.097ZM117.536 217.768L124.469 221.76L124.477 221.746L124.485 221.732L117.536 217.768ZM112.556 236.733H120.556V236.698L120.556 236.663L112.556 236.733ZM112.556 241.439L120.556 241.468L120.556 241.454V241.439H112.556ZM116.675 251.434L111.019 257.091L111.019 257.091L116.675 251.434ZM121.261 254.493L124.31 247.096L124.31 247.096L121.261 254.493ZM126.67 255.554V247.554H126.656L126.642 247.554L126.67 255.554ZM248.986 255.554L249.014 247.554L249 247.554H248.986V255.554ZM254.395 254.493L257.443 261.889L257.443 261.889L254.395 254.493ZM263.1 241.439H255.1V241.454L255.1 241.468L263.1 241.439ZM263.1 236.733L255.1 236.659L255.1 236.696V236.733H263.1ZM258.12 217.768L251.171 221.732L251.18 221.748L251.189 221.763L258.12 217.768ZM223 147C223 166.33 207.33 182 188 182V198C216.167 198 239 175.167 239 147H223ZM188 112C207.33 112 223 127.67 223 147H239C239 118.833 216.167 96 188 96V112ZM153 147C153 127.67 168.67 112 188 112V96C159.833 96 137 118.833 137 147H153ZM188 182C168.67 182 153 166.33 153 147H137C137 175.167 159.833 198 188 198V182ZM225.556 207.117C230.783 207.069 235.927 208.42 240.455 211.029L248.442 197.165C241.442 193.132 233.49 191.044 225.411 191.117L225.556 207.117ZM209.273 207.117H225.484V191.117H209.273V207.117ZM187.808 211.818C196.373 211.818 204.836 209.965 212.617 206.385L205.929 191.849C200.246 194.464 194.064 195.818 187.808 195.818V211.818ZM162.999 206.385C170.78 209.965 179.243 211.818 187.808 211.818V195.818C181.552 195.818 175.37 194.464 169.687 191.849L162.999 206.385ZM150.172 207.117H166.343V191.117H150.172V207.117ZM135.199 211.03C139.729 208.422 144.874 207.071 150.102 207.117L150.242 191.117C142.165 191.046 134.216 193.134 127.216 197.164L135.199 211.03ZM124.485 221.732C127.026 217.278 130.717 213.587 135.171 211.046L127.243 197.148C120.3 201.109 114.548 206.861 110.588 213.804L124.485 221.732ZM120.556 236.663C120.51 231.435 121.861 226.29 124.469 221.76L110.603 213.777C106.573 220.777 104.486 228.726 104.556 236.803L120.556 236.663ZM120.556 241.439V236.733H104.556V241.439H120.556ZM121.014 243.8C120.709 243.061 120.553 242.268 120.556 241.468L104.556 241.411C104.546 244.322 105.111 247.206 106.221 249.897L121.014 243.8ZM122.332 245.777C121.766 245.212 121.318 244.54 121.014 243.8L106.221 249.897C107.33 252.588 108.96 255.033 111.019 257.091L122.332 245.777ZM124.31 247.096C123.57 246.791 122.898 246.343 122.332 245.777L111.019 257.091C113.077 259.149 115.522 260.78 118.213 261.889L124.31 247.096ZM126.642 247.554C125.842 247.556 125.049 247.401 124.31 247.096L118.213 261.889C120.904 262.998 123.788 263.564 126.699 263.553L126.642 247.554ZM248.986 247.554H126.67V263.554H248.986V247.554ZM251.347 247.096C250.607 247.401 249.814 247.556 249.014 247.554L248.957 263.553C251.868 263.564 254.752 262.998 257.443 261.889L251.347 247.096ZM253.324 245.777C252.758 246.343 252.086 246.791 251.346 247.096L257.443 261.889C260.134 260.78 262.579 259.149 264.638 257.091L253.324 245.777ZM254.642 243.8C254.338 244.54 253.889 245.212 253.324 245.777L264.638 257.091C266.696 255.033 268.326 252.588 269.435 249.897L254.642 243.8ZM255.1 241.468C255.103 242.268 254.947 243.06 254.642 243.8L269.435 249.897C270.544 247.206 271.11 244.322 271.1 241.411L255.1 241.468ZM255.1 236.733V241.439H271.1V236.733H255.1ZM251.189 221.763C253.798 226.291 255.149 231.434 255.1 236.659L271.1 236.807C271.175 228.727 269.086 220.774 265.051 213.773L251.189 221.763ZM240.485 211.046C244.939 213.587 248.63 217.278 251.171 221.732L265.068 213.804C261.108 206.861 255.356 201.109 248.413 197.148L240.485 211.046Z" fill="#09A37E" fill-opacity="0.8" mask="url(#path-6-inside-1_1833_15582)"/>
</g>
<g filter="url(#filter1_d_1833_15582)">
<mask id="path-8-inside-2_1833_15582" fill="white">
<path fill-rule="evenodd" clip-rule="evenodd" d="M327 316C350.748 316 370 296.748 370 273C370 249.252 350.748 230 327 230C303.252 230 284 249.252 284 273C284 296.748 303.252 316 327 316ZM383.398 330.156C377.633 326.835 371.086 325.115 364.433 325.176H348.222C341.49 328.273 334.168 329.877 326.757 329.877C319.347 329.877 312.024 328.273 305.292 325.176H289.121C282.469 325.117 275.922 326.837 270.156 330.156C264.458 333.407 259.736 338.128 256.486 343.827C253.166 349.592 251.447 356.139 251.505 362.792V367.498C251.499 369.353 251.859 371.192 252.566 372.907C253.273 374.622 254.313 376.181 255.625 377.493C256.937 378.805 258.495 379.844 260.21 380.551C261.926 381.258 263.764 381.619 265.619 381.612H387.935C389.79 381.619 391.629 381.258 393.344 380.551C395.06 379.844 396.618 378.805 397.93 377.493C399.242 376.181 400.281 374.622 400.988 372.907C401.695 371.192 402.056 369.353 402.049 367.498V362.792C402.111 356.139 400.391 349.591 397.069 343.827C393.818 338.128 389.097 333.407 383.398 330.156Z"/>
</mask>
<path fill-rule="evenodd" clip-rule="evenodd" d="M327 316C350.748 316 370 296.748 370 273C370 249.252 350.748 230 327 230C303.252 230 284 249.252 284 273C284 296.748 303.252 316 327 316ZM383.398 330.156C377.633 326.835 371.086 325.115 364.433 325.176H348.222C341.49 328.273 334.168 329.877 326.757 329.877C319.347 329.877 312.024 328.273 305.292 325.176H289.121C282.469 325.117 275.922 326.837 270.156 330.156C264.458 333.407 259.736 338.128 256.486 343.827C253.166 349.592 251.447 356.139 251.505 362.792V367.498C251.499 369.353 251.859 371.192 252.566 372.907C253.273 374.622 254.313 376.181 255.625 377.493C256.937 378.805 258.495 379.844 260.21 380.551C261.926 381.258 263.764 381.619 265.619 381.612H387.935C389.79 381.619 391.629 381.258 393.344 380.551C395.06 379.844 396.618 378.805 397.93 377.493C399.242 376.181 400.281 374.622 400.988 372.907C401.695 371.192 402.056 369.353 402.049 367.498V362.792C402.111 356.139 400.391 349.591 397.069 343.827C393.818 338.128 389.097 333.407 383.398 330.156Z" fill="white"/>
<path d="M364.433 325.176V333.176H364.469L364.506 333.175L364.433 325.176ZM383.398 330.156L379.404 337.088L379.419 337.096L379.434 337.105L383.398 330.156ZM348.222 325.176V317.176H346.47L344.878 317.908L348.222 325.176ZM305.292 325.176L308.636 317.908L307.045 317.176H305.292V325.176ZM289.121 325.176L289.051 333.175L289.086 333.176H289.121V325.176ZM270.156 330.156L274.12 337.105L274.134 337.097L274.148 337.089L270.156 330.156ZM256.486 343.827L263.419 347.818L263.427 347.805L263.435 347.791L256.486 343.827ZM251.505 362.792H259.505V362.757L259.505 362.721L251.505 362.792ZM251.505 367.498L259.505 367.526L259.505 367.512V367.498H251.505ZM252.566 372.907L259.963 369.859L252.566 372.907ZM255.625 377.493L249.968 383.15L249.968 383.15L255.625 377.493ZM265.619 381.612V373.612H265.605L265.591 373.612L265.619 381.612ZM387.935 381.612L387.963 373.612L387.949 373.612H387.935V381.612ZM397.93 377.493L403.587 383.15L403.587 383.15L397.93 377.493ZM402.049 367.498H394.049V367.512L394.049 367.526L402.049 367.498ZM402.049 362.792L394.049 362.717L394.049 362.755V362.792H402.049ZM397.069 343.827L390.12 347.791L390.129 347.806L390.138 347.822L397.069 343.827ZM362 273C362 292.33 346.33 308 327 308V324C355.167 324 378 301.167 378 273H362ZM327 238C346.33 238 362 253.67 362 273H378C378 244.833 355.167 222 327 222V238ZM292 273C292 253.67 307.67 238 327 238V222C298.833 222 276 244.833 276 273H292ZM327 308C307.67 308 292 292.33 292 273H276C276 301.167 298.833 324 327 324V308ZM364.506 333.175C369.732 333.128 374.876 334.479 379.404 337.088L387.392 323.224C380.391 319.191 372.439 317.103 364.361 317.176L364.506 333.175ZM348.222 333.176H364.433V317.176H348.222V333.176ZM326.757 337.877C335.322 337.877 343.786 336.023 351.566 332.443L344.878 317.908C339.195 320.523 333.013 321.877 326.757 321.877V337.877ZM301.948 332.443C309.729 336.023 318.193 337.877 326.757 337.877V321.877C320.501 321.877 314.319 320.523 308.636 317.908L301.948 332.443ZM289.121 333.176H305.292V317.176H289.121V333.176ZM274.148 337.089C278.679 334.481 283.824 333.129 289.051 333.175L289.192 317.176C281.115 317.105 273.165 319.193 266.165 323.223L274.148 337.089ZM263.435 347.791C265.976 343.336 269.666 339.646 274.12 337.105L266.192 323.207C259.25 327.168 253.497 332.92 249.537 339.863L263.435 347.791ZM259.505 362.721C259.459 357.494 260.81 352.349 263.419 347.818L249.553 339.835C245.522 346.835 243.435 354.785 243.506 362.862L259.505 362.721ZM259.505 367.498V362.792H243.505V367.498H259.505ZM259.963 369.859C259.658 369.119 259.502 368.326 259.505 367.526L243.505 367.47C243.495 370.38 244.061 373.264 245.17 375.955L259.963 369.859ZM261.282 371.836C260.716 371.27 260.268 370.598 259.963 369.859L245.17 375.955C246.279 378.647 247.91 381.092 249.968 383.15L261.282 371.836ZM263.259 373.155C262.519 372.85 261.847 372.402 261.281 371.836L249.968 383.15C252.026 385.208 254.471 386.838 257.162 387.948L263.259 373.155ZM265.591 373.612C264.791 373.615 263.998 373.459 263.259 373.155L257.162 387.948C259.854 389.057 262.737 389.622 265.648 389.612L265.591 373.612ZM387.935 373.612H265.619V389.612H387.935V373.612ZM390.296 373.155C389.556 373.459 388.764 373.615 387.963 373.612L387.907 389.612C390.817 389.622 393.701 389.057 396.392 387.948L390.296 373.155ZM392.273 371.836C391.707 372.402 391.035 372.85 390.296 373.155L396.392 387.948C399.084 386.838 401.529 385.208 403.587 383.15L392.273 371.836ZM393.592 369.859C393.287 370.598 392.839 371.27 392.273 371.836L403.587 383.15C405.645 381.091 407.276 378.646 408.385 375.955L393.592 369.859ZM394.049 367.526C394.052 368.326 393.897 369.119 393.592 369.859L408.385 375.955C409.494 373.264 410.059 370.38 410.049 367.47L394.049 367.526ZM394.049 362.792V367.498H410.049V362.792H394.049ZM390.138 347.822C392.747 352.349 394.098 357.492 394.049 362.717L410.049 362.866C410.124 354.786 408.035 346.832 404 339.832L390.138 347.822ZM379.434 337.105C383.889 339.646 387.579 343.336 390.12 347.791L404.018 339.863C400.057 332.92 394.305 327.168 387.362 323.207L379.434 337.105Z" fill="#4360E6" fill-opacity="0.8" mask="url(#path-8-inside-2_1833_15582)"/>
</g>
<path d="M82.8115 223.894V223.117C82.8115 223.117 82.8115 223.162 82.8115 223.227V223.76C82.814 223.804 82.814 223.849 82.8115 223.894Z" fill="black"/>
<path d="M415.978 266.325C417.837 264.65 419.929 263.255 422.189 262.181C413.11 259.163 409.38 251.006 407.885 244.531C406.361 251.006 402.646 259.143 393.627 262.171C395.897 263.26 397.996 264.674 399.857 266.37C403.846 270.067 406.641 274.87 407.885 280.165C409.116 274.837 411.938 270.01 415.978 266.325Z" fill="#0046CF" fill-opacity="0.16"/>
<path d="M94.2509 252.88C96.1096 251.205 98.2015 249.809 100.461 248.736C91.3822 245.718 87.652 237.56 86.1579 231.086C84.634 237.56 80.9187 245.698 71.8994 248.726C74.1698 249.814 76.2687 251.229 78.1297 252.924C82.1186 256.622 84.9138 261.425 86.1579 266.72C87.3881 261.392 90.2108 256.565 94.2509 252.88Z" fill="#0046CF" fill-opacity="0.2"/>
<path d="M118.162 188.19C120.843 185.996 123.816 184.185 126.997 182.811C114.048 178.887 108.789 168.269 106.633 159.867C104.461 168.259 99.1621 178.862 86.3379 182.776C89.5343 184.179 92.5183 186.023 95.2028 188.255C100.777 192.904 104.771 199.168 106.633 206.184C108.481 199.12 112.517 192.821 118.162 188.19Z" fill="#9CC8FF"/>
<defs>
<filter id="filter0_d_1833_15582" x="87.5547" y="95" width="200.547" height="201.555" filterUnits="userSpaceOnUse" color-interpolation-filters="sRGB">
<feFlood flood-opacity="0" result="BackgroundImageFix"/>
<feColorMatrix in="SourceAlpha" type="matrix" values="0 0 0 0 0 0 0 0 0 0 0 0 0 0 0 0 0 0 127 0" result="hardAlpha"/>
<feOffset dy="16"/>
<feGaussianBlur stdDeviation="12.5"/>
<feComposite in2="hardAlpha" operator="out"/>
<feColorMatrix type="matrix" values="0 0 0 0 0.0352941 0 0 0 0 0.639216 0 0 0 0 0.494118 0 0 0 0.24 0"/>
<feBlend mode="normal" in2="BackgroundImageFix" result="effect1_dropShadow_1833_15582"/>
<feBlend mode="normal" in="SourceGraphic" in2="effect1_dropShadow_1833_15582" result="shape"/>
</filter>
<filter id="filter1_d_1833_15582" x="226.504" y="221" width="200.547" height="201.613" filterUnits="userSpaceOnUse" color-interpolation-filters="sRGB">
<feFlood flood-opacity="0" result="BackgroundImageFix"/>
<feColorMatrix in="SourceAlpha" type="matrix" values="0 0 0 0 0 0 0 0 0 0 0 0 0 0 0 0 0 0 127 0" result="hardAlpha"/>
<feOffset dy="16"/>
<feGaussianBlur stdDeviation="12.5"/>
<feComposite in2="hardAlpha" operator="out"/>
<feColorMatrix type="matrix" values="0 0 0 0 0.262745 0 0 0 0 0.376471 0 0 0 0 0.901961 0 0 0 0.32 0"/>
<feBlend mode="normal" in2="BackgroundImageFix" result="effect1_dropShadow_1833_15582"/>
<feBlend mode="normal" in="SourceGraphic" in2="effect1_dropShadow_1833_15582" result="shape"/>
</filter>
</defs>
</svg>
